<svg xmlns="http://www.w3.org/2000/svg" viewBox="0 0 32 32" fill="none">
  <!-- Roof -->
  <path d="M16 3L2 15h4v12h20V15h4L16 3z" fill="#8B4513"/>
  <!-- Roof outline -->
  <path d="M16 3L2 15h4v12h20V15h4L16 3z" stroke="#5D3A1A" stroke-width="1.5" fill="none"/>
  <!-- Front wall -->
  <rect x="8" y="15" width="16" height="12" fill="#DEB887"/>
  <!-- Door -->
  <rect x="13" y="19" width="6" height="8" rx="0.5" fill="#5D3A1A"/>
  <!-- Door knob -->
  <circle cx="17.5" cy="23" r="0.8" fill="#FFD700"/>
  <!-- Left window -->
  <rect x="9.5" y="17" width="3" height="3" rx="0.3" fill="#87CEEB" stroke="#5D3A1A" stroke-width="0.5"/>
  <line x1="11" y1="17" x2="11" y2="20" stroke="#5D3A1A" stroke-width="0.4"/>
  <line x1="9.5" y1="18.5" x2="12.5" y2="18.5" stroke="#5D3A1A" stroke-width="0.4"/>
  <!-- Right window -->
  <rect x="19.5" y="17" width="3" height="3" rx="0.3" fill="#87CEEB" stroke="#5D3A1A" stroke-width="0.5"/>
  <line x1="21" y1="17" x2="21" y2="20" stroke="#5D3A1A" stroke-width="0.4"/>
  <line x1="19.5" y1="18.5" x2="22.5" y2="18.5" stroke="#5D3A1A" stroke-width="0.4"/>
  <!-- Chimney -->
  <rect x="21" y="6" width="4" height="7" fill="#8B0000"/>
  <rect x="20.5" y="5" width="5" height="1.5" fill="#A52A2A"/>
</svg>

